<svg width="371" height="77" viewBox="0 0 371 77" fill="none" xmlns="http://www.w3.org/2000/svg">
<path d="M98.54 50.4V51.94H110.384L97.84 70H114.808V68.46H101.9L114.332 50.4H98.54ZM121.388 50.4V70H123.936V50.4H121.388ZM148.832 50.4V65.38H148.72L133.18 50.064H133.04V70H134.328V55.02H134.44L149.98 70.336H150.12V50.4H148.832ZM158.369 70V50.4H164.809C166.359 50.4 167.777 50.652 169.065 51.156C170.353 51.6413 171.455 52.3227 172.369 53.2C173.303 54.0587 174.021 55.0853 174.525 56.28C175.048 57.4747 175.309 58.7627 175.309 60.144C175.309 61.5813 175.039 62.9067 174.497 64.12C173.975 65.3147 173.247 66.3507 172.313 67.228C171.399 68.1053 170.325 68.7867 169.093 69.272C167.861 69.7573 166.545 70 165.145 70H158.369ZM160.917 68.768H163.997C165.528 68.768 166.825 68.516 167.889 68.012C168.972 67.4893 169.859 66.8173 170.549 65.996C171.24 65.1747 171.744 64.26 172.061 63.252C172.379 62.2253 172.537 61.208 172.537 60.2C172.537 59.08 172.351 58.0067 171.977 56.98C171.604 55.9347 171.053 55.02 170.325 54.236C169.616 53.4333 168.729 52.7987 167.665 52.332C166.601 51.8653 165.379 51.632 163.997 51.632H160.917V68.768ZM179.639 50.4V62.44C179.639 63.2053 179.714 64.0547 179.863 64.988C180.013 65.9027 180.367 66.7613 180.927 67.564C181.487 68.348 182.318 69.0107 183.419 69.552C184.521 70.0747 186.023 70.336 187.927 70.336C189.122 70.336 190.177 70.1493 191.091 69.776C192.025 69.4027 192.799 68.8893 193.415 68.236C194.05 67.5827 194.526 66.8267 194.843 65.968C195.161 65.0907 195.319 64.1573 195.319 63.168V50.4H194.087V62.244C194.087 62.6547 194.078 63.0747 194.059 63.504C194.041 63.9147 193.985 64.3347 193.891 64.764C193.798 65.1747 193.649 65.5853 193.443 65.996C193.257 66.4067 192.977 66.8173 192.603 67.228C191.931 67.956 191.175 68.4507 190.335 68.712C189.495 68.9733 188.618 69.104 187.703 69.104C186.919 69.104 186.219 68.9827 185.603 68.74C185.006 68.4973 184.437 68.1333 183.895 67.648C183.466 67.2747 183.139 66.9013 182.915 66.528C182.691 66.1547 182.523 65.7907 182.411 65.436C182.299 65.0627 182.234 64.6893 182.215 64.316C182.197 63.9427 182.187 63.5693 182.187 63.196V50.4H179.639ZM202.172 70H204.72V63.112L207.884 59.724L215.332 70H218.244L209.508 57.988L216.62 50.4H215.22L204.72 61.432V50.4H202.172V70ZM234.585 64.232L237.273 70H239.989L230.861 50.4H229.461L221.173 70H222.461L224.925 64.232H234.585ZM233.997 62.972H225.457L229.489 53.536H229.601L233.997 62.972ZM267.402 64.232L270.09 70H272.806L263.678 50.4H262.278L253.99 70H255.278L257.742 64.232H267.402ZM266.814 62.972H258.274L262.306 53.536H262.418L266.814 62.972ZM278.278 50.4V70H280.826V60.256H289.506V58.968H280.826V51.94H290.934V50.4H278.278ZM296.382 50.4V70H298.93V61.348H300.162C300.685 61.348 301.114 61.3947 301.45 61.488C301.805 61.5813 302.122 61.74 302.402 61.964C302.682 62.188 302.943 62.4773 303.186 62.832C303.429 63.1867 303.718 63.6253 304.054 64.148L306.266 67.424C306.546 67.8533 306.817 68.2453 307.078 68.6C307.358 68.9547 307.657 69.2627 307.974 69.524C308.291 69.7667 308.646 69.9627 309.038 70.112C309.449 70.2613 309.934 70.336 310.494 70.336C310.905 70.336 311.241 70.3173 311.502 70.28C311.763 70.2427 312.025 70.1493 312.286 70V68.964C312.193 68.9827 312.099 69.0013 312.006 69.02C311.913 69.02 311.819 69.02 311.726 69.02C311.334 69.02 310.989 68.964 310.69 68.852C310.391 68.74 310.111 68.5813 309.85 68.376C309.589 68.152 309.337 67.8907 309.094 67.592C308.851 67.2747 308.599 66.92 308.338 66.528C307.554 65.3893 306.947 64.484 306.518 63.812C306.089 63.1213 305.743 62.5893 305.482 62.216C305.239 61.8427 305.034 61.572 304.866 61.404C304.717 61.236 304.53 61.096 304.306 60.984L304.026 60.844V60.732C304.922 60.676 305.687 60.48 306.322 60.144C306.975 59.808 307.507 59.388 307.918 58.884C308.329 58.38 308.627 57.8387 308.814 57.26C309.001 56.6627 309.094 56.084 309.094 55.524C309.094 55.02 308.991 54.4693 308.786 53.872C308.599 53.2747 308.263 52.724 307.778 52.22C307.311 51.6973 306.667 51.268 305.846 50.932C305.025 50.5773 303.989 50.4 302.738 50.4H296.382ZM298.93 51.632H301.758C302.467 51.632 303.102 51.7347 303.662 51.94C304.241 52.1453 304.735 52.4347 305.146 52.808C305.557 53.1627 305.865 53.592 306.07 54.096C306.294 54.6 306.406 55.1507 306.406 55.748C306.406 56.252 306.303 56.7653 306.098 57.288C305.911 57.792 305.622 58.2587 305.23 58.688C304.838 59.0987 304.353 59.4347 303.774 59.696C303.214 59.9573 302.561 60.088 301.814 60.088H298.93V51.632ZM318.86 50.4V70H321.408V50.4H318.86ZM330.511 70H333.059V63.112L336.223 59.724L343.671 70H346.583L337.847 57.988L344.959 50.4H343.559L333.059 61.432V50.4H330.511V70ZM362.925 64.232L365.613 70H368.329L359.201 50.4H357.801L349.513 70H350.801L353.265 64.232H362.925ZM362.337 62.972H353.797L357.829 53.536H357.941L362.337 62.972Z" fill="#F2F4EA"/>
<path d="M47.2716 1.69682C45.9512 2.65504 41.3896 5.88902 37.1581 8.88345C32.9266 11.9078 29.2654 14.5429 29.0853 14.7825C28.7852 15.1418 28.8152 15.3514 29.2954 15.7706C30.5558 16.9684 48.6521 31.701 49.0422 31.8507C49.5224 32.0304 49.7325 27.6286 49.9725 12.357C50.0626 6.57774 50.2126 1.42732 50.3027 0.888324C50.5127 -0.459169 50.0926 -0.339392 47.2716 1.69682Z" fill="black"/>
<path d="M125.299 23.8259C123.528 24.6045 123.378 24.6344 117.496 24.6344C114.195 24.6344 103.391 24.4547 93.4876 24.2152C73.0505 23.7361 74.1609 23.6462 69.7794 26.1316C68.4589 26.8802 64.5576 29.5153 61.0764 32.0007C51.9832 38.4986 48.9522 40.1156 45.7411 40.1455C43.6103 40.1755 41.8397 39.4269 39.4989 37.5104C35.1174 33.977 23.3833 25.1734 22.2429 24.5745C19.8721 23.3468 14.4102 23.766 8.85829 25.5627C7.53783 26.0118 6.33741 26.461 6.21737 26.5808C6.06732 26.7006 6.99764 26.8802 8.22807 27C12.8197 27.4192 17.0511 28.8865 20.6224 31.312C23.0532 32.9589 26.8045 36.9714 29.2954 40.5049C30.4658 42.1518 32.0263 44.3677 32.7766 45.4457C33.5268 46.5237 36.7079 50.1769 39.799 53.5606C42.9201 56.9443 47.5717 62.0348 50.1226 64.8496C52.6735 67.6943 54.9243 70 55.1343 70C55.4945 70 57.5051 67.305 59.2458 64.3705C59.876 63.3224 62.1268 59.0104 64.2575 54.7883C68.7591 45.7751 69.8994 43.9185 72.7504 41.1038C76.9519 36.9714 79.9529 35.9833 89.5563 35.5641C104.772 34.8753 113.835 32.2103 124.728 25.2033C126.199 24.2751 127.519 23.3767 127.699 23.227C128.24 22.7479 127.069 23.0174 125.299 23.8259Z" fill="#C8F168"/>
<path d="M7.98799 51.3149C3.84655 54.3393 0.395355 56.8247 0.245303 56.8247C-0.204853 56.8247 0.0052194 57.3936 0.545407 57.5434C0.8155 57.6032 4.77687 58.7112 9.30845 59.9688C13.84 61.2265 20.5924 63.1429 24.3136 64.191C28.0049 65.269 31.216 66.0775 31.4561 66.0475C31.6962 65.9876 30.4658 64.191 28.305 61.4361C26.3544 58.9807 23.4133 55.2077 21.7628 53.0817C17.6513 47.8115 15.9407 45.7453 15.6707 45.7752C15.5506 45.7752 12.0994 48.2906 7.98799 51.3149Z" fill="black"/>
</svg>
