<svg width="189" height="189" viewBox="0 0 189 189" fill="none" xmlns="http://www.w3.org/2000/svg">
<circle cx="94.5" cy="94.5" r="94.5" fill="#043F2E"/>
<circle cx="118.5" cy="72.5" r="62.5" fill="#C8F168"/>
<path d="M115.322 83.0291C115.494 81.3887 115.845 78.9625 116.666 76.7072C117.794 73.6062 121.161 71.9583 129.629 68.868C138.446 65.6924 142.395 62.447 144.549 56.527C147.354 48.8215 142.281 41.1222 131.475 37.189C126.4 35.3421 119.711 34.7164 114.593 35.6205L111.771 46.2992L114.12 47.1542L116.965 44.891C121.657 41.0649 125.211 40.6558 129.064 42.0581C134.138 43.905 136.17 48.2628 134.529 52.7734C133.092 56.7201 130.571 58.6758 123.214 61.6383C115.986 64.541 112.627 67.0432 111.533 70.0502C110.233 73.6211 110.599 77.5854 111.94 81.7978L115.322 83.0291ZM106.551 103.036C110.216 104.369 114.189 102.517 115.523 98.8518C116.891 95.0931 115.004 91.2137 111.339 89.8798C107.58 88.5118 103.735 90.3048 102.367 94.0635C101.033 97.7283 102.792 101.667 106.551 103.036Z" fill="#222222"/>
</svg>
